<?xml version="1.0" standalone="no"?>
<!DOCTYPE svg PUBLIC "-//W3C//DTD SVG 20010904//EN"
 "http://www.w3.org/TR/2001/REC-SVG-20010904/DTD/svg10.dtd">
<svg version="1.0" xmlns="http://www.w3.org/2000/svg"
 width="612.000000pt" height="612.000000pt" viewBox="0 0 612.000000 612.000000"
 preserveAspectRatio="xMidYMid meet">

<g transform="translate(0.000000,612.000000) scale(0.100000,-0.100000)"
fill="#000000" stroke="none">
<path d="M0 3060 l0 -3060 3060 0 3060 0 0 3060 0 3060 -3060 0 -3060 0 0
-3060z m3478 1490 c450 -49 848 -290 1096 -662 20 -30 36 -59 36 -64 0 -5
-332 -341 -737 -746 -405 -405 -735 -739 -732 -742 3 -3 48 -11 101 -17 112
-14 207 -3 326 37 157 52 186 77 714 603 268 266 490 483 492 480 14 -14 39
-196 43 -324 8 -226 -20 -400 -98 -600 -97 -252 -284 -496 -499 -656 -67 -50
-99 -69 -220 -137 -69 -38 -217 -92 -321 -116 -350 -84 -704 -44 -1022 114
l-98 48 -102 -104 -102 -104 -530 0 -530 0 368 368 369 369 -45 89 c-57 113
-99 234 -129 365 -20 90 -23 131 -23 309 0 227 15 323 77 499 230 651 883
1064 1566 991z"/>
<path d="M3211 3799 c-87 -13 -223 -66 -296 -114 -162 -108 -275 -272 -320
-465 -17 -77 -20 -228 -4 -301 l11 -52 454 454 c250 250 454 457 454 460 0 19
-212 31 -299 18z"/>
</g>
</svg>
